<?xml version="1.0" encoding="UTF-8" standalone="no"?>
<svg
   xmlns:dc="http://purl.org/dc/elements/1.1/"
   xmlns:cc="http://creativecommons.org/ns#"
   xmlns:rdf="http://www.w3.org/1999/02/22-rdf-syntax-ns#"
   xmlns:svg="http://www.w3.org/2000/svg"
   xmlns="http://www.w3.org/2000/svg"
   xmlns:sodipodi="http://sodipodi.sourceforge.net/DTD/sodipodi-0.dtd"
   xmlns:inkscape="http://www.inkscape.org/namespaces/inkscape"
   width="858"
   height="679.79999"
   viewBox="0 0 858 679.79999"
   id="svg2"
   version="1.1"
   inkscape:version="0.91 r13725"
   sodipodi:docname="warehouse-EPA.svg">
  <metadata
     id="metadata427">
    <rdf:RDF>
      <cc:Work
         rdf:about="">
        <dc:format>image/svg+xml</dc:format>
        <dc:type
           rdf:resource="http://purl.org/dc/dcmitype/StillImage" />
        <dc:title></dc:title>
        <dc:creator>
          <cc:Agent>
            <dc:title>EPA</dc:title>
          </cc:Agent>
        </dc:creator>
        <cc:license
           rdf:resource="http://creativecommons.org/publicdomain/zero/1.0/" />
        <dc:description>remix by j4p4n</dc:description>
      </cc:Work>
      <cc:License
         rdf:about="http://creativecommons.org/publicdomain/zero/1.0/">
        <cc:permits
           rdf:resource="http://creativecommons.org/ns#Reproduction" />
        <cc:permits
           rdf:resource="http://creativecommons.org/ns#Distribution" />
        <cc:permits
           rdf:resource="http://creativecommons.org/ns#DerivativeWorks" />
      </cc:License>
    </rdf:RDF>
  </metadata>
  <sodipodi:namedview
     pagecolor="#ffffff"
     bordercolor="#666666"
     borderopacity="1"
     objecttolerance="10"
     gridtolerance="10"
     guidetolerance="10"
     inkscape:pageopacity="0"
     inkscape:pageshadow="2"
     inkscape:window-width="1916"
     inkscape:window-height="1035"
     id="namedview425"
     showgrid="false"
     fit-margin-top="0"
     fit-margin-left="0"
     fit-margin-right="0"
     fit-margin-bottom="0"
     inkscape:zoom="1.9027778"
     inkscape:cx="428.6"
     inkscape:cy="340.25"
     inkscape:window-x="4"
     inkscape:window-y="1"
     inkscape:window-maximized="1"
     inkscape:current-layer="svg2" />
  <defs
     id="defs4">
    <linearGradient
       id="warehouse-a"
       x1="35.229103"
       x2="17.864744"
       y1="41.714966"
       y2="41.714966"
       gradientTransform="scale(0.7130241,1.4024771)"
       gradientUnits="userSpaceOnUse">
      <stop
         offset="0%"
         stop-color="#CDD3DD"
         id="stop7" />
      <stop
         offset="72%"
         stop-color="#CDD3DD"
         id="stop9" />
      <stop
         offset="89%"
         stop-color="#AAB4CC"
         id="stop11" />
      <stop
         offset="100%"
         stop-color="#8091B5"
         id="stop13" />
    </linearGradient>
    <linearGradient
       id="warehouse-b"
       x1="75.314697"
       x2="38.214001"
       y1="18.535133"
       y2="18.535133"
       gradientTransform="scale(0.33333333,3)"
       gradientUnits="userSpaceOnUse">
      <stop
         offset="0%"
         stop-color="#CDD3DD"
         id="stop16" />
      <stop
         offset="72%"
         stop-color="#CDD3DD"
         id="stop18" />
      <stop
         offset="83%"
         stop-color="#AAB4CC"
         id="stop20" />
      <stop
         offset="100%"
         stop-color="#8091B5"
         id="stop22" />
    </linearGradient>
    <linearGradient
       id="warehouse-c"
       x1="78.300049"
       x2="60.865807"
       y1="54.037125"
       y2="54.037125"
       gradientTransform="scale(0.7100716,1.4083087)"
       gradientUnits="userSpaceOnUse">
      <stop
         offset="0%"
         stop-color="#CDD3DD"
         id="stop25" />
      <stop
         offset="72%"
         stop-color="#CDD3DD"
         id="stop27" />
      <stop
         offset="89%"
         stop-color="#AAB4CC"
         id="stop29" />
      <stop
         offset="100%"
         stop-color="#8091B5"
         id="stop31" />
    </linearGradient>
    <linearGradient
       id="warehouse-d"
       x1="169.7478"
       x2="133.02592"
       y1="23.776096"
       y2="23.776096"
       gradientTransform="scale(0.32489314,3.0779351)"
       gradientUnits="userSpaceOnUse">
      <stop
         offset="0%"
         stop-color="#CDD3DD"
         id="stop34" />
      <stop
         offset="72%"
         stop-color="#CDD3DD"
         id="stop36" />
      <stop
         offset="83%"
         stop-color="#AAB4CC"
         id="stop38" />
      <stop
         offset="100%"
         stop-color="#8091B5"
         id="stop40" />
    </linearGradient>
    <linearGradient
       id="warehouse-e"
       x1="89.250557"
       x2="76.412048"
       y1="85.110512"
       y2="85.110512"
       gradientTransform="scale(0.96448564,1.0368221)"
       gradientUnits="userSpaceOnUse">
      <stop
         offset="0%"
         stop-color="#CDD3DD"
         id="stop43" />
      <stop
         offset="72%"
         stop-color="#CDD3DD"
         id="stop45" />
      <stop
         offset="89%"
         stop-color="#AAB4CC"
         id="stop47" />
      <stop
         offset="100%"
         stop-color="#8091B5"
         id="stop49" />
    </linearGradient>
    <linearGradient
       id="warehouse-f"
       x1="162.00325"
       x2="138.85805"
       y1="45.295006"
       y2="45.295006"
       gradientTransform="scale(0.53074489,1.8841444)"
       gradientUnits="userSpaceOnUse">
      <stop
         offset="0%"
         stop-color="#CDD3DD"
         id="stop52" />
      <stop
         offset="72%"
         stop-color="#CDD3DD"
         id="stop54" />
      <stop
         offset="83%"
         stop-color="#AAB4CC"
         id="stop56" />
      <stop
         offset="100%"
         stop-color="#8091B5"
         id="stop58" />
    </linearGradient>
    <linearGradient
       id="warehouse-g"
       x1="73.725082"
       x2="57.214664"
       y1="138.07332"
       y2="143.68875"
       gradientTransform="scale(1.4082489,0.71010174)"
       gradientUnits="userSpaceOnUse">
      <stop
         offset="0%"
         stop-color="#CDD3DD"
         id="stop61" />
      <stop
         offset="100%"
         stop-color="#FFF"
         id="stop63" />
    </linearGradient>
    <linearGradient
       id="warehouse-h"
       x1="10.701485"
       x2="0.24293853"
       y1="74.284065"
       y2="78.909332"
       gradientTransform="scale(1.2817399,0.7801895)"
       gradientUnits="userSpaceOnUse">
      <stop
         offset="0%"
         stop-color="#CDD3DD"
         id="stop66" />
      <stop
         offset="100%"
         stop-color="#FFF"
         id="stop68" />
    </linearGradient>
    <linearGradient
       id="warehouse-i"
       x1="59.409618"
       x2="41.07523"
       y1="118.77458"
       y2="125.86282"
       gradientTransform="scale(1.3208637,0.7570804)"
       gradientUnits="userSpaceOnUse">
      <stop
         offset="0%"
         stop-color="#CDD3DD"
         id="stop71" />
      <stop
         offset="100%"
         stop-color="#FFF"
         id="stop73" />
    </linearGradient>
    <linearGradient
       id="warehouse-j"
       x1="36.086853"
       x2="17.851301"
       y1="95.618263"
       y2="102.66826"
       gradientTransform="scale(1.3208637,0.7570804)"
       gradientUnits="userSpaceOnUse">
      <stop
         offset="0%"
         stop-color="#CDD3DD"
         id="stop76" />
      <stop
         offset="100%"
         stop-color="#FFF"
         id="stop78" />
    </linearGradient>
    <linearGradient
       id="warehouse-k"
       x1="38.055943"
       x2="36.976212"
       y1="88.968964"
       y2="90.082588"
       gradientTransform="scale(1.1766968,0.84983659)"
       gradientUnits="userSpaceOnUse">
      <stop
         offset="0%"
         stop-color="#99A5C1"
         id="stop81" />
      <stop
         offset="100%"
         stop-color="#E6E7E8"
         id="stop83" />
    </linearGradient>
    <linearGradient
       id="warehouse-l"
       x1="52.761787"
       x2="40.918213"
       y1="57.684956"
       y2="89.640503"
       gradientTransform="scale(0.98260737,1.0177005)"
       gradientUnits="userSpaceOnUse">
      <stop
         offset="0%"
         stop-color="#213D47"
         id="stop86" />
      <stop
         offset="100%"
         stop-color="#2F5A7D"
         id="stop88" />
    </linearGradient>
    <linearGradient
       id="warehouse-m"
       x1="42.485836"
       x2="41.429836"
       y1="94.75293"
       y2="95.800201"
       gradientTransform="scale(1.2,0.83333333)"
       gradientUnits="userSpaceOnUse">
      <stop
         offset="0%"
         stop-color="#99A5C1"
         id="stop91" />
      <stop
         offset="100%"
         stop-color="#E6E7E8"
         id="stop93" />
    </linearGradient>
    <linearGradient
       id="warehouse-n"
       x1="59.078739"
       x2="47.216953"
       y1="61.044975"
       y2="93.049683"
       gradientTransform="scale(0.98260737,1.0177005)"
       gradientUnits="userSpaceOnUse">
      <stop
         offset="0%"
         stop-color="#213D47"
         id="stop96" />
      <stop
         offset="100%"
         stop-color="#2F5A7D"
         id="stop98" />
    </linearGradient>
    <linearGradient
       id="warehouse-o"
       x1="33.248322"
       x2="34.724579"
       y1="103.72294"
       y2="103.94379"
       gradientTransform="scale(1.2909944,0.77459667)"
       gradientUnits="userSpaceOnUse">
      <stop
         offset="0%"
         stop-color="#96A3C1"
         id="stop101" />
      <stop
         offset="100%"
         stop-color="#FFF"
         id="stop103" />
    </linearGradient>
    <linearGradient
       id="warehouse-p"
       x1="35.974869"
       x2="32.745804"
       y1="104.28174"
       y2="103.08788"
       gradientTransform="scale(1.3000542,0.76919872)"
       gradientUnits="userSpaceOnUse">
      <stop
         offset="0%"
         stop-color="#627692"
         id="stop106" />
      <stop
         offset="100%"
         stop-color="#223A54"
         id="stop108" />
    </linearGradient>
    <linearGradient
       id="warehouse-q"
       x1="33.248322"
       x2="34.724579"
       y1="98.934547"
       y2="99.155304"
       gradientTransform="scale(1.2909944,0.77459667)"
       gradientUnits="userSpaceOnUse">
      <stop
         offset="0%"
         stop-color="#96A3C1"
         id="stop111" />
      <stop
         offset="100%"
         stop-color="#FFF"
         id="stop113" />
    </linearGradient>
    <linearGradient
       id="warehouse-r"
       x1="36.226212"
       x2="32.974022"
       y1="98.705627"
       y2="97.486382"
       gradientTransform="scale(1.2909944,0.77459667)"
       gradientUnits="userSpaceOnUse">
      <stop
         offset="0%"
         stop-color="#627692"
         id="stop116" />
      <stop
         offset="100%"
         stop-color="#223A54"
         id="stop118" />
    </linearGradient>
    <linearGradient
       id="warehouse-s"
       x1="33.248417"
       x2="34.724674"
       y1="94.145966"
       y2="94.36673"
       gradientTransform="scale(1.2909944,0.77459667)"
       gradientUnits="userSpaceOnUse">
      <stop
         offset="0%"
         stop-color="#96A3C1"
         id="stop121" />
      <stop
         offset="100%"
         stop-color="#FFF"
         id="stop123" />
    </linearGradient>
    <linearGradient
       id="warehouse-t"
       x1="36.227142"
       x2="32.975323"
       y1="93.917976"
       y2="92.69873"
       gradientTransform="scale(1.2909944,0.77459667)"
       gradientUnits="userSpaceOnUse">
      <stop
         offset="0%"
         stop-color="#627692"
         id="stop126" />
      <stop
         offset="100%"
         stop-color="#223A54"
         id="stop128" />
    </linearGradient>
    <linearGradient
       id="warehouse-u"
       x1="33.017365"
       x2="34.483334"
       y1="89.963333"
       y2="90.179596"
       gradientTransform="scale(1.3000542,0.76919872)"
       gradientUnits="userSpaceOnUse">
      <stop
         offset="0%"
         stop-color="#96A3C1"
         id="stop131" />
      <stop
         offset="100%"
         stop-color="#FFF"
         id="stop133" />
    </linearGradient>
    <linearGradient
       id="warehouse-v"
       x1="36.227421"
       x2="32.975788"
       y1="89.12912"
       y2="87.910057"
       gradientTransform="scale(1.2909944,0.77459667)"
       gradientUnits="userSpaceOnUse">
      <stop
         offset="0%"
         stop-color="#627692"
         id="stop136" />
      <stop
         offset="100%"
         stop-color="#223A54"
         id="stop138" />
    </linearGradient>
    <linearGradient
       id="warehouse-w"
       x1="56.462418"
       x2="57.928661"
       y1="112.84382"
       y2="113.06009"
       gradientTransform="scale(1.3000542,0.76919872)"
       gradientUnits="userSpaceOnUse">
      <stop
         offset="0%"
         stop-color="#96A3C1"
         id="stop141" />
      <stop
         offset="100%"
         stop-color="#FFF"
         id="stop143" />
    </linearGradient>
    <linearGradient
       id="warehouse-x"
       x1="59.836353"
       x2="56.583698"
       y1="111.84886"
       y2="110.62942"
       gradientTransform="scale(1.2909944,0.77459667)"
       gradientUnits="userSpaceOnUse">
      <stop
         offset="0%"
         stop-color="#627692"
         id="stop146" />
      <stop
         offset="100%"
         stop-color="#223A54"
         id="stop148" />
    </linearGradient>
    <linearGradient
       id="warehouse-y"
       x1="12.153761"
       x2="11.076175"
       y1="68.256775"
       y2="69.368195"
       gradientTransform="scale(1.1766968,0.84983659)"
       gradientUnits="userSpaceOnUse">
      <stop
         offset="0%"
         stop-color="#99A5C1"
         id="stop151" />
      <stop
         offset="100%"
         stop-color="#E6E7E8"
         id="stop153" />
    </linearGradient>
    <linearGradient
       id="warehouse-z"
       x1="21.768988"
       x2="10.540232"
       y1="39.646534"
       y2="71.065269"
       gradientTransform="scale(0.96490128,1.0363755)"
       gradientUnits="userSpaceOnUse">
      <stop
         offset="0%"
         stop-color="#213D47"
         id="stop156" />
      <stop
         offset="100%"
         stop-color="#2F5A7D"
         id="stop158" />
    </linearGradient>
    <linearGradient
       id="warehouse-A"
       x1="17.08474"
       x2="16.02766"
       y1="73.636414"
       y2="74.684792"
       gradientTransform="scale(1.2,0.83333333)"
       gradientUnits="userSpaceOnUse">
      <stop
         offset="0%"
         stop-color="#99A5C1"
         id="stop161" />
      <stop
         offset="100%"
         stop-color="#E6E7E8"
         id="stop163" />
    </linearGradient>
    <linearGradient
       id="warehouse-B"
       x1="28.194151"
       x2="16.967018"
       y1="42.971306"
       y2="74.385315"
       gradientTransform="scale(0.96490128,1.0363755)"
       gradientUnits="userSpaceOnUse">
      <stop
         offset="0%"
         stop-color="#213D47"
         id="stop166" />
      <stop
         offset="100%"
         stop-color="#2F5A7D"
         id="stop168" />
    </linearGradient>
    <linearGradient
       id="warehouse-C"
       x1="9.5990467"
       x2="11.069401"
       y1="81.35112"
       y2="81.569252"
       gradientTransform="scale(1.2963624,0.77138922)"
       gradientUnits="userSpaceOnUse">
      <stop
         offset="0%"
         stop-color="#96A3C1"
         id="stop171" />
      <stop
         offset="100%"
         stop-color="#FFF"
         id="stop173" />
    </linearGradient>
    <linearGradient
       id="warehouse-D"
       x1="12.476654"
       x2="9.2610416"
       y1="81.75177"
       y2="80.572784"
       gradientTransform="scale(1.3054598,0.76601362)"
       gradientUnits="userSpaceOnUse">
      <stop
         offset="0%"
         stop-color="#627692"
         id="stop176" />
      <stop
         offset="100%"
         stop-color="#223A54"
         id="stop178" />
    </linearGradient>
    <linearGradient
       id="warehouse-E"
       x1="9.5999794"
       x2="11.070055"
       y1="76.542442"
       y2="76.760574"
       gradientTransform="scale(1.2963624,0.77138922)"
       gradientUnits="userSpaceOnUse">
      <stop
         offset="0%"
         stop-color="#96A3C1"
         id="stop181" />
      <stop
         offset="100%"
         stop-color="#FFF"
         id="stop183" />
    </linearGradient>
    <linearGradient
       id="warehouse-F"
       x1="12.565424"
       x2="9.3267794"
       y1="76.312576"
       y2="75.108421"
       gradientTransform="scale(1.2963624,0.77138922)"
       gradientUnits="userSpaceOnUse">
      <stop
         offset="0%"
         stop-color="#627692"
         id="stop186" />
      <stop
         offset="100%"
         stop-color="#223A54"
         id="stop188" />
    </linearGradient>
    <linearGradient
       id="warehouse-G"
       x1="9.5990467"
       x2="11.069308"
       y1="71.734886"
       y2="71.953018"
       gradientTransform="scale(1.2963624,0.77138922)"
       gradientUnits="userSpaceOnUse">
      <stop
         offset="0%"
         stop-color="#96A3C1"
         id="stop191" />
      <stop
         offset="100%"
         stop-color="#FFF"
         id="stop193" />
    </linearGradient>
    <linearGradient
       id="warehouse-H"
       x1="12.564304"
       x2="9.3253794"
       y1="71.504082"
       y2="70.299744"
       gradientTransform="scale(1.2963624,0.77138922)"
       gradientUnits="userSpaceOnUse">
      <stop
         offset="0%"
         stop-color="#627692"
         id="stop196" />
      <stop
         offset="100%"
         stop-color="#223A54"
         id="stop198" />
    </linearGradient>
    <linearGradient
       id="warehouse-I"
       x1="9.5321531"
       x2="10.992169"
       y1="67.374191"
       y2="67.587837"
       gradientTransform="scale(1.3054598,0.76601362)"
       gradientUnits="userSpaceOnUse">
      <stop
         offset="0%"
         stop-color="#96A3C1"
         id="stop201" />
      <stop
         offset="100%"
         stop-color="#FFF"
         id="stop203" />
    </linearGradient>
    <linearGradient
       id="warehouse-J"
       x1="12.566544"
       x2="9.3283653"
       y1="66.696808"
       y2="65.492752"
       gradientTransform="scale(1.2963624,0.77138922)"
       gradientUnits="userSpaceOnUse">
      <stop
         offset="0%"
         stop-color="#627692"
         id="stop206" />
      <stop
         offset="100%"
         stop-color="#223A54"
         id="stop208" />
    </linearGradient>
    <linearGradient
       id="warehouse-K"
       x1="68.539001"
       x2="69.017456"
       y1="94.376427"
       y2="93.358444"
       gradientTransform="scale(1.1365151,0.87988269)"
       gradientUnits="userSpaceOnUse">
      <stop
         offset="0%"
         stop-color="#E6E7E8"
         id="stop211" />
      <stop
         offset="100%"
         stop-color="#5D6B82"
         id="stop213" />
    </linearGradient>
    <linearGradient
       id="warehouse-L"
       x1="42.434353"
       x2="42.922173"
       y1="72.541733"
       y2="71.460922"
       gradientTransform="scale(1.1135529,0.89802651)"
       gradientUnits="userSpaceOnUse">
      <stop
         offset="0%"
         stop-color="#E6E7E8"
         id="stop216" />
      <stop
         offset="100%"
         stop-color="#5D6B82"
         id="stop218" />
    </linearGradient>
    <linearGradient
       id="warehouse-M"
       x1="14.75624"
       x2="15.233931"
       y1="54.022774"
       y2="53.006622"
       gradientTransform="scale(1.1365151,0.87988269)"
       gradientUnits="userSpaceOnUse">
      <stop
         offset="0%"
         stop-color="#E6E7E8"
         id="stop221" />
      <stop
         offset="100%"
         stop-color="#5D6B82"
         id="stop223" />
    </linearGradient>
  </defs>
  <g
     id="g225"
     transform="matrix(6,0,0,6,-5.4,-4.2)"
     style="fill:none;fill-rule:evenodd">
    <polygon
       points="93.6,82.7 142.7,54.4 142.7,85 93.6,113.3 "
       id="polygon227"
       style="fill:#4d92bc" />
    <polygon
       points="85.7,108.7 85.7,105.4 73.8,98.6 71,100.2 63.1,95.7 55.2,91.1 55.2,87.8 43.3,81 40.5,82.6 32.6,78.1 24.8,73.5 24.8,70.4 12.7,63.5 10.1,65 2.2,60.5 2.2,29.9 17.4,35.2 32.6,47.5 47.9,52.8 63.1,65.1 78.4,70.4 93.6,82.7 93.6,113.3 "
       id="polygon229"
       style="fill:#4481a0" />
    <polygon
       points="1.2,29 50.2,0.7 143.7,54.7 94.6,83 "
       id="polygon231"
       style="fill:#485c72" />
    <g
       transform="translate(73,81)"
       id="g233"
       style="fill:#877f76">
      <polygon
         points="0.7,0.8 12.7,7.7 12.7,24.6 0.4,17.9 "
         id="polygon235" />
      <polygon
         points="0.7,0.8 12.7,7.7 12.7,24.6 1,17.5 "
         id="polygon237" />
      <polygon
         points="0.7,0.8 12.7,7.7 12.7,24.6 1.7,17.1 "
         id="polygon239" />
      <polygon
         points="0.7,0.8 12.7,7.7 12.7,24.6 2.4,16.7 "
         id="polygon241" />
      <polygon
         points="0.7,0.8 12.7,7.7 12.7,24.6 3.1,16.3 "
         id="polygon243" />
      <polygon
         points="0.7,0.8 12.7,7.7 12.7,24.6 3.8,15.9 "
         id="polygon245" />
      <polygon
         points="0.7,0.8 12.7,7.7 12.7,24.6 4.5,15.5 "
         id="polygon247" />
      <polygon
         points="0.7,0.8 12.7,7.7 12.7,24.6 5.2,15.1 "
         id="polygon249" />
      <polygon
         points="0.7,0.8 12.7,7.7 12.7,24.6 5.9,14.7 "
         id="polygon251" />
      <polygon
         points="0.7,0.8 12.7,7.7 12.7,24.6 6.6,14.3 "
         id="polygon253" />
      <polygon
         points="0.7,0.8 12.7,7.7 12.7,24.6 7.2,13.9 "
         id="polygon255" />
      <polygon
         points="0.7,0.8 12.7,7.7 12.7,24.6 7.9,13.5 "
         id="polygon257" />
    </g>
    <path
       d="M 94.6,84.3 1.1,30.3 c 0,-0.4 0,-0.8 0,-1.3 l 93.5,54 c 0,0.4 0,0.8 0,1.3 z"
       id="path259"
       inkscape:connector-curvature="0"
       style="fill:#cad2de" />
    <polygon
       points="10.1,45 24.8,53.5 12.7,63.5 10.1,65 "
       id="polygon261"
       style="fill:#496a8b" />
    <polygon
       points="12.7,46.6 24.8,53.5 24.8,70.4 12.7,63.5 "
       id="polygon263"
       style="fill:url(#warehouse-a)" />
    <polygon
       points="12.7,46.6 14.7,47.7 14.7,64.6 12.7,63.5 "
       id="polygon265"
       style="fill:url(#warehouse-b)" />
    <polygon
       points="40.5,62.6 55.2,71.1 43.2,81.1 40.5,82.6 "
       id="polygon267"
       style="fill:#496a8b" />
    <polygon
       points="43.2,64.2 55.2,71.1 55.2,88 43.2,81.1 "
       id="polygon269"
       style="fill:url(#warehouse-c)" />
    <polygon
       points="43.2,81.1 43.2,64.2 45.1,65.3 45.1,82.2 45.1,82.2 "
       id="polygon271"
       style="fill:url(#warehouse-d)" />
    <polygon
       points="71,80.2 85.7,91.8 73.7,98.7 71,100.2 "
       id="polygon273"
       style="fill:#496a8b" />
    <polygon
       points="73.7,81.8 85.7,88.7 85.7,94.7 73.7,87.8 "
       id="polygon275"
       style="fill:url(#warehouse-e)" />
    <polygon
       points="73.7,81.8 75.7,82.9 75.7,88.9 73.7,87.8 "
       id="polygon277"
       style="fill:url(#warehouse-f)" />
    <polygon
       points="143.9,82.6 143.9,85 93.6,114 93.6,111.6 "
       id="polygon279"
       style="fill:#e7e8e9" />
    <polygon
       points="93.6,110.9 85.7,106.3 85,106.6 85,106.6 93.6,111.6 143.9,82.6 142.6,81.9 142.6,82.6 "
       id="polygon281"
       style="fill:url(#warehouse-g)" />
    <polygon
       points="10.1,62.6 9.4,62.9 0.9,58 2.2,57.3 2.2,58 "
       id="polygon283"
       style="fill:url(#warehouse-h)" />
    <polygon
       points="70.3,98.1 70.3,98.1 70.3,100.6 54.6,91.5 54.6,89 54.6,89 "
       id="polygon285"
       style="fill:#cad2de" />
    <polygon
       points="70.3,98.1 70.3,98.1 71,97.8 55.2,88.7 54.6,89 54.6,89 "
       id="polygon287"
       style="fill:url(#warehouse-i)" />
    <polygon
       points="40.5,80.2 40.5,82.6 39.9,83 39.9,80.5 "
       id="polygon289"
       style="fill:#97a5c2" />
    <polygon
       points="10.1,62.6 10.1,65 9.4,65.4 9.4,62.9 "
       id="polygon291"
       style="fill:#97a5c2" />
    <polygon
       points="71,97.8 71,100.2 70.3,100.6 70.3,98.1 "
       id="polygon293"
       style="fill:#97a5c2" />
    <polygon
       points="39.9,80.5 39.9,80.5 39.9,83 24.1,73.9 24.1,71.4 24.1,71.4 "
       id="polygon295"
       style="fill:#cad2de" />
    <polygon
       points="9.4,62.9 9.4,65.4 0.9,60.5 0.9,58 9.4,62.9 "
       id="polygon297"
       style="fill:#cad2de" />
    <polygon
       points="39.9,80.5 39.9,80.5 40.5,80.2 24.8,71.1 24.1,71.4 24.1,71.4 "
       id="polygon299"
       style="fill:url(#warehouse-j)" />
    <polygon
       points="45.2,73.1 44.4,73.6 48,75.7 48,74.7 "
       id="polygon301"
       style="fill:url(#warehouse-k)" />
    <polygon
       points="44.6,73.5 44.4,73.3 44.4,73.6 48,75.7 48,75.5 "
       id="polygon303"
       style="fill:#e6e7e8" />
    <polygon
       points="45.2,71.8 45.2,73.1 48,74.7 48,73.4 "
       id="polygon305"
       style="fill:url(#warehouse-l)" />
    <polygon
       points="45.2,71.8 45.2,73.1 44.4,73.6 44.4,71.3 "
       id="polygon307"
       style="fill:#b9c1cf" />
    <polygon
       points="45.2,71.8 45.2,73.1 44.6,73.5 44.6,71.5 "
       id="polygon309"
       style="fill:#4d78a0" />
    <polygon
       points="51.4,76.6 50.6,77.1 54.2,79.1 54.2,78.2 "
       id="polygon311"
       style="fill:url(#warehouse-m)" />
    <polygon
       points="50.8,76.9 50.6,76.7 50.6,77.1 54.2,79.1 54.2,78.9 "
       id="polygon313"
       style="fill:#e6e7e8" />
    <polygon
       points="51.4,75.3 51.4,76.6 54.2,78.2 54.2,76.9 "
       id="polygon315"
       style="fill:url(#warehouse-n)" />
    <polygon
       points="51.4,75.3 51.4,76.6 50.6,77.1 50.6,74.8 "
       id="polygon317"
       style="fill:#b9c1cf" />
    <polygon
       points="51.4,75.3 51.4,76.6 50.8,76.9 50.8,74.9 "
       id="polygon319"
       style="fill:#4d78a0" />
    <polygon
       points="43.2,77.3 55.2,84.3 55.2,84.5 43.2,77.6 "
       id="polygon321"
       style="fill:url(#warehouse-o)" />
    <polygon
       points="43.2,77.2 55.2,84.1 55.2,84.3 43.2,77.4 "
       id="polygon323"
       style="fill:url(#warehouse-p)" />
    <polygon
       points="43.2,73.6 55.2,80.6 55.2,80.8 43.2,73.8 "
       id="polygon325"
       style="fill:url(#warehouse-q)" />
    <polygon
       points="43.2,73.4 55.2,80.4 55.2,80.6 43.2,73.7 "
       id="polygon327"
       style="fill:url(#warehouse-r)" />
    <polygon
       points="43.2,69.9 55.2,76.8 55.2,77.1 43.2,70.1 "
       id="polygon329"
       style="fill:url(#warehouse-s)" />
    <polygon
       points="43.2,69.7 55.2,76.7 55.2,76.9 43.2,69.9 "
       id="polygon331"
       style="fill:url(#warehouse-t)" />
    <polygon
       points="43.2,66.2 55.2,73.1 55.2,73.3 43.2,66.4 "
       id="polygon333"
       style="fill:url(#warehouse-u)" />
    <polygon
       points="43.2,66 55.2,72.9 55.2,73.2 43.2,66.2 "
       id="polygon335"
       style="fill:url(#warehouse-v)" />
    <polygon
       points="73.7,83.8 85.7,90.7 85.7,90.9 73.7,84 "
       id="polygon337"
       style="fill:url(#warehouse-w)" />
    <polygon
       points="73.7,83.6 85.7,90.5 85.7,90.8 73.7,83.8 "
       id="polygon339"
       style="fill:url(#warehouse-x)" />
    <polygon
       points="14.8,55.5 13.9,56 17.5,58.1 17.5,57.1 "
       id="polygon341"
       style="fill:url(#warehouse-y)" />
    <polygon
       points="14.1,55.9 13.9,55.7 13.9,56 17.5,58.1 17.5,57.9 "
       id="polygon343"
       style="fill:#e6e7e8" />
    <polygon
       points="14.8,54.2 14.8,55.5 17.5,57.1 17.5,55.8 "
       id="polygon345"
       style="fill:url(#warehouse-z)" />
    <polygon
       points="14.8,54.2 14.8,55.5 13.9,56 13.9,53.7 "
       id="polygon347"
       style="fill:#b9c1cf" />
    <polygon
       points="14.8,54.2 14.8,55.5 14.1,55.9 14.1,53.9 "
       id="polygon349"
       style="fill:#4d78a0" />
    <polygon
       points="21,59 20.1,59.5 23.7,61.5 23.7,60.6 "
       id="polygon351"
       style="fill:url(#warehouse-A)" />
    <polygon
       points="20.3,59.3 20.1,59.1 20.1,59.5 23.7,61.5 23.7,61.3 "
       id="polygon353"
       style="fill:#e6e7e8" />
    <polygon
       points="21,57.7 21,59 23.7,60.6 23.7,59.3 "
       id="polygon355"
       style="fill:url(#warehouse-B)" />
    <polygon
       points="21,57.7 21,59 20.1,59.5 20.1,57.2 "
       id="polygon357"
       style="fill:#b9c1cf" />
    <polygon
       points="21,57.7 21,59 20.3,59.3 20.3,57.3 "
       id="polygon359"
       style="fill:#4d78a0" />
    <polygon
       points="12.7,59.7 24.8,66.7 24.8,66.9 12.7,60 "
       id="polygon361"
       style="fill:url(#warehouse-C)" />
    <polygon
       points="12.7,59.6 24.8,66.5 24.8,66.7 12.7,59.8 "
       id="polygon363"
       style="fill:url(#warehouse-D)" />
    <polygon
       points="12.7,56 24.8,63 24.8,63.2 12.7,56.2 "
       id="polygon365"
       style="fill:url(#warehouse-E)" />
    <polygon
       points="12.7,55.8 24.8,62.8 24.8,63 12.7,56.1 "
       id="polygon367"
       style="fill:url(#warehouse-F)" />
    <polygon
       points="12.7,52.3 24.8,59.2 24.8,59.5 12.7,52.5 "
       id="polygon369"
       style="fill:url(#warehouse-G)" />
    <polygon
       points="12.7,52.1 24.8,59.1 24.8,59.3 12.7,52.3 "
       id="polygon371"
       style="fill:url(#warehouse-H)" />
    <polygon
       points="12.7,48.6 24.8,55.5 24.8,55.7 12.7,48.8 "
       id="polygon373"
       style="fill:url(#warehouse-I)" />
    <polygon
       points="12.7,48.4 24.8,55.3 24.8,55.6 12.7,48.6 "
       id="polygon375"
       style="fill:url(#warehouse-J)" />
    <polygon
       points="143.7,55.2 143.7,55.3 143.7,55.5 143.7,55.6 143.7,55.8 143.7,55.9 94.6,84.3 94.6,84.1 94.6,83.9 94.6,83.8 94.6,83.6 94.6,83.5 94.6,83.3 94.6,83.2 94.6,83 143.7,54.7 143.7,54.8 143.7,55 "
       id="polygon377"
       style="fill:#e7e8e9" />
    <polygon
       points="80.1,84.1 77.8,82.8 76.2,81.1 78.6,82.4 "
       id="polygon379"
       style="fill:#001733" />
    <polygon
       points="79.7,83.8 77.8,82.8 76.6,81.4 78.5,82.4 "
       id="polygon381"
       style="fill:url(#warehouse-K)" />
    <polygon
       points="78.6,82.4 76.2,81.1 77.8,80.6 80.1,81.9 "
       id="polygon383"
       style="fill:#44566c" />
    <polygon
       points="80.5,82.4 80.1,84.1 78.6,82.4 80.1,81.9 "
       id="polygon385"
       style="fill:#001733" />
    <polygon
       points="49.4,66.2 47.1,64.9 45.6,63.1 47.9,64.5 "
       id="polygon387"
       style="fill:#001733" />
    <polygon
       points="49.1,65.9 47.2,64.8 46,63.4 47.8,64.5 "
       id="polygon389"
       style="fill:url(#warehouse-L)" />
    <polygon
       points="47.9,64.5 45.6,63.1 47.2,62.7 49.5,64 "
       id="polygon391"
       style="fill:#44566c" />
    <polygon
       points="49.8,64.4 49.4,66.2 47.9,64.5 49.5,64 "
       id="polygon393"
       style="fill:#001733" />
    <polygon
       points="19,48.6 16.6,47.3 15.1,45.6 17.4,46.9 "
       id="polygon395"
       style="fill:#001733" />
    <polygon
       points="18.6,48.3 16.7,47.2 15.5,45.9 17.4,46.9 "
       id="polygon397"
       style="fill:url(#warehouse-M)" />
    <polygon
       points="17.4,46.9 15.1,45.6 16.7,45.1 19,46.4 "
       id="polygon399"
       style="fill:#44566c" />
    <polygon
       points="19.4,46.8 19,48.6 17.4,46.9 19,46.4 "
       id="polygon401"
       style="fill:#001733" />
    <polygon
       points="93.6,111.6 93.6,113.9 85,109 85,106.7 "
       id="polygon403"
       style="fill:#cad2de" />
    <g
       transform="translate(106,37)"
       id="g405">
      <polygon
         points="23,5.6 13.5,0.2 0.9,7.6 10.4,13 "
         id="polygon407"
         style="fill:#b3b3b3" />
      <polygon
         points="10.4,13 0.9,7.6 0.9,17.3 10.4,22.7 "
         id="polygon409"
         style="fill:#8c8c8c" />
      <polygon
         points="23,5.6 10.4,13 10.4,22.7 23,15.4 "
         id="polygon411"
         style="fill:#a8a8a8" />
      <path
         d="m 15.3,4.5 c -1.8,-1 -4.6,-1 -6.4,0 -1.8,1 -1.8,2.7 0,3.7 1.8,1 4.6,1 6.4,0 1.7,-1 1.7,-2.6 0,-3.7 z"
         id="path413"
         inkscape:connector-curvature="0"
         style="fill:#808080" />
    </g>
    <g
       transform="translate(90,46)"
       id="g415">
      <polygon
         points="22.7,6.1 13.3,0.7 0.7,8 10.1,13.4 "
         id="polygon417"
         style="fill:#b3b3b3" />
      <polygon
         points="10.1,13.4 0.7,8 0.7,17.8 10.2,23.2 "
         id="polygon419"
         style="fill:#8c8c8c" />
      <polygon
         points="22.7,6.1 10.1,13.4 10.2,23.2 22.7,15.9 "
         id="polygon421"
         style="fill:#a8a8a8" />
      <path
         d="M 15,5 C 13.2,4 10.4,4 8.6,5 c -1.8,1 -1.8,2.7 0,3.7 1.8,1 4.7,1 6.4,0 1.8,-1 1.8,-2.7 0,-3.7 z"
         id="path423"
         inkscape:connector-curvature="0"
         style="fill:#808080" />
    </g>
  </g>
</svg>
